<svg xmlns="http://www.w3.org/2000/svg" viewBox="0 0 64 64" fill="none" stroke="#000" stroke-width="1.5" stroke-linecap="round" stroke-linejoin="round">
  <!-- Left head (original) -->
  <ellipse cx="20" cy="18" rx="7" ry="5"/>
  <path d="M13 22 L10 48 L30 48 L27 22 Z"/>
  <rect x="14" y="28" width="4" height="3" rx="0.5"/>
  <rect x="20" y="28" width="4" height="3" rx="0.5"/>
  <circle cx="20" cy="34" r="1.5"/>
  <line x1="16" y1="42" x2="24" y2="42"/>
  <!-- Right head (mirror/copy) -->
  <ellipse cx="44" cy="18" rx="7" ry="5"/>
  <path d="M51 22 L54 48 L34 48 L37 22 Z"/>
  <rect x="46" y="28" width="4" height="3" rx="0.5"/>
  <rect x="40" y="28" width="4" height="3" rx="0.5"/>
  <circle cx="44" cy="34" r="1.5"/>
  <line x1="40" y1="42" x2="48" y2="42"/>
  <!-- Double arrow / mirror symbol between -->
  <path d="M28 32 L32 32 M31 30 L32 32 L31 34 M36 32 L32 32 M33 30 L32 32 L33 34"/>
</svg>
