<svg xmlns="http://www.w3.org/2000/svg" width="64" height="64" viewBox="0 0 64 64" fill="none" stroke="#000" stroke-width="1.5" stroke-linecap="round" stroke-linejoin="round">
  <ellipse cx="32" cy="14" rx="10" ry="6"/>
  <path d="M22 18 L18 50 L46 50 L42 18 Z"/>
  <rect x="25" y="25" width="6" height="4" rx="1"/>
  <rect x="33" y="25" width="6" height="4" rx="1"/>
  <circle cx="32" cy="34" r="2"/>
  <line x1="28" y1="44" x2="36" y2="44"/>
  <path d="M8 24 Q14 24 18 26"/>
  <path d="M8 30 Q14 30 18 30"/>
  <path d="M8 36 Q14 36 18 34"/>
  <path d="M42 16 L44 8 M44 8 L50 6"/>
  <circle cx="50" cy="6" r="2"/>
</svg>
